<svg width="29" height="22" viewBox="0 0 29 22" fill="none" xmlns="http://www.w3.org/2000/svg">
<path d="M14.5 0.351879L13.8511 0V0.00236106L13.8489 0.0055104L13.8446 0.0157437L13.8293 0.0495936C13.7535 0.225579 13.6834 0.404383 13.6191 0.585679C13.4591 1.03458 13.3339 1.49723 13.245 1.96879C13.0536 3.00869 12.9905 4.54925 13.9874 5.63165C14.4405 6.12365 14.5036 6.94471 14.3325 7.87282C14.2312 8.40806 14.0731 8.92874 13.8612 9.42439L13.8525 9.44407L13.8511 9.44643L14.5 9.79832C15.1481 10.1502 15.1488 10.1494 15.1488 10.1494V10.1478L15.151 10.1447L15.1554 10.1345L15.1706 10.1006L15.2213 9.98252C15.4594 9.40545 15.6384 8.80172 15.7549 8.18219C15.9463 7.14151 16.0094 5.60095 15.0125 4.51855C14.5594 4.02654 14.4963 3.20549 14.6674 2.27738C14.7687 1.74213 14.9269 1.22146 15.1387 0.725801L15.1474 0.706121L15.1488 0.703759L14.5 0.351879Z" fill="#AFB4B8"/>
<path fill-rule="evenodd" clip-rule="evenodd" d="M0 14.915C0 14.7062 0.0763839 14.506 0.212348 14.3584C0.348312 14.2107 0.532718 14.1278 0.725 14.1278H28.275C28.4673 14.1278 28.6517 14.2107 28.7877 14.3584C28.9236 14.506 29 14.7062 29 14.915C29 15.1238 28.9236 15.324 28.7877 15.4716C28.6517 15.6193 28.4673 15.7022 28.275 15.7022H26.1C26.1 17.3724 25.4889 18.9743 24.4012 20.1553C23.3135 21.3363 21.8383 21.9998 20.3 21.9998H8.7C7.16174 21.9998 5.68649 21.3363 4.59878 20.1553C3.51107 18.9743 2.9 17.3724 2.9 15.7022H0.725C0.532718 15.7022 0.348312 15.6193 0.212348 15.4716C0.0763839 15.324 0 15.1238 0 14.915ZM4.35 15.7022H24.65C24.65 16.9549 24.1917 18.1563 23.3759 19.042C22.5601 19.9278 21.4537 20.4254 20.3 20.4254H8.7C7.54631 20.4254 6.43987 19.9278 5.62409 19.042C4.8083 18.1563 4.35 16.9549 4.35 15.7022Z" fill="#AFB4B8"/>
<path d="M8.09838 1.87964L8.70013 2.32047C9.30115 2.76052 9.30188 2.75973 9.30188 2.75973L9.29245 2.77548C9.22882 2.88565 9.16932 2.99858 9.1141 3.11397C8.97703 3.39647 8.86768 3.69383 8.78785 4.00115C8.61385 4.70334 8.6762 5.25753 9.1315 5.62279C10.3075 6.56901 10.2451 7.98361 10.0117 8.92117C9.90495 9.3378 9.75792 9.741 9.57303 10.124C9.49738 10.282 9.41562 10.4364 9.32798 10.5869L9.31348 10.6121L9.30985 10.6176L9.30405 10.627L9.3026 10.6302L9.30188 10.631C9.30188 10.631 9.30115 10.6325 8.70013 10.1917C8.0991 9.75088 8.09838 9.75167 8.09838 9.75167L8.1078 9.73671L8.14695 9.66901C8.19574 9.58022 8.24216 9.48992 8.28615 9.39821C8.39853 9.16363 8.52758 8.84875 8.6124 8.51025C8.7864 7.80806 8.72405 7.25466 8.26875 6.88861C7.0928 5.94239 7.15515 4.52858 7.3886 3.59023C7.50823 3.10846 7.68513 2.68495 7.82723 2.38738C7.90815 2.21895 7.99597 2.05452 8.0904 1.8946L8.09548 1.88515L8.09765 1.88121L8.09838 1.87964ZM21.0251 2.31969C20.4241 1.87885 20.4234 1.87964 20.4234 1.87964V1.88121L20.4205 1.88515L20.4147 1.8946C20.3188 2.05344 20.2312 2.21796 20.1522 2.38738C20.0101 2.68495 19.8332 3.10846 19.7136 3.59023C19.4802 4.52779 19.4178 5.94239 20.5938 6.88861C21.0491 7.25466 21.1114 7.80806 20.9367 8.51025C20.8526 8.84875 20.7235 9.16363 20.6104 9.39821C20.5555 9.51364 20.4963 9.62657 20.4328 9.73671L20.4241 9.75245L21.0251 10.1917C21.6262 10.6325 21.6269 10.631 21.6269 10.631V10.6302L21.6298 10.627L21.6356 10.6176L21.6465 10.5979L21.6537 10.5869C21.7413 10.4364 21.8231 10.282 21.8988 10.124C22.0831 9.7408 22.2298 9.33765 22.3366 8.92117C22.5701 7.98361 22.6325 6.56901 21.4565 5.62279C21.0012 5.25674 20.9389 4.70334 21.1136 4.00115C21.1977 3.66265 21.3267 3.34777 21.4398 3.11319C21.4948 2.9978 21.5541 2.88488 21.6175 2.77469L21.6262 2.75973L21.0251 2.31969Z" fill="#AFB4B8"/>
</svg>
